<svg width="1530" height="443" viewBox="0 0 1530 443" fill="none" xmlns="http://www.w3.org/2000/svg">
<path d="M123.3 439.8C115.7 431.8 106.4 414.5 105.7 407C105.5 404.5 104.8 398 104.2 392.5C101.9 372.5 100.7 353 101.3 346.1C101.7 341.1 101.5 337.7 100.4 334.8C99.6998 332.6 98.9998 329.6 98.9998 328.2C98.9998 323.5 79.9998 307.1 67.1998 300.8C60.9998 297.7 60.7998 297.5 61.4998 294.6C61.8998 292.9 62.2998 288.2 62.3998 284.2C62.4998 277.2 62.6998 276.7 65.7998 273.9C69.4998 270.6 71.9998 270.3 75.5998 272.6C78.4998 274.6 81.0998 273.2 78.4998 271C74.0998 267.3 79.5998 267 86.5998 270.5C91.6998 273.1 93.9998 273.6 93.9998 272.2C93.9998 271.7 93.5998 268.9 92.9998 265.9C91.7998 259.3 89.2998 235.2 87.4998 212.5C84.7998 179.5 85.0998 181 82.3998 181C81.0998 181 76.0998 182.9 71.2998 185.3C66.4998 187.6 59.7998 190.6 56.4998 191.8C46.6998 195.6 43.7998 197 38.4998 200.4C27.9998 207.2 27.4998 207.4 24.0998 206C22.3998 205.3 20.3998 203.6 19.6998 202.1C18.5998 199.7 17.7998 199.5 11.4998 199C3.19985 198.4 2.49985 198 0.999849 193.4C-0.800151 188 0.399849 183 4.19985 179.8C7.39985 177.2 7.49985 177.1 5.49985 175.6C3.59985 174.2 3.69985 173.9 9.09985 168.7C13.7998 164.3 17.2998 162.3 28.6998 157.3C38.2998 153.1 43.4998 151.4 45.2998 151.7C47.0998 152.1 49.6998 151.2 53.6998 149C62.0998 144.2 71.8998 139.5 76.0998 138.1C82.7998 135.9 83.1998 134.8 82.5998 120.4C82.2998 113.3 81.7998 87.1 81.3998 62.2C80.7998 13.8 80.7998 14 85.6998 14C87.5998 14 88.4998 14.9 89.9998 18.6C91.0998 21.1 91.9998 23.8 91.9998 24.5C91.9998 25.2 92.7998 26.8 93.7998 28C96.1998 30.9 97.1998 29.7 99.9998 20C103.2 8.9 107.9 0 110.6 0C115.5 0 116.7 5.3 122.4 53C125.6 79.3 126 83.9 126.1 90.6C126.2 101.8 127.2 106.5 129.5 106.8C130.6 106.9 139.6 103.2 149.5 98.4C159.4 93.6 171.8 88 177 85.8C187.6 81.4 208.7 74 210.9 74C211.7 74 213.3 74.9 214.5 76C216.3 77.7 217.2 77.9 219.4 77C224.7 75 229.8 75.9 247 81.7C257 85.1 263.1 88.2 271 94C288.8 107.2 298.3 123.7 302.6 148.5C304 156.9 304 158.4 302.5 165.4C298.5 185.1 286.2 199 259.8 214C256.6 215.7 254 217.6 254 218.1C254 218.6 256.1 220 258.8 221.3C261.4 222.5 269.6 227.4 277 232C299.6 246.2 309.1 257.3 314 275.4C316.5 284.8 316.5 288.7 314 299.4C308.3 323.8 293.6 346.5 273.8 361.5C266.3 367.2 252.3 374.1 240.8 377.7C233.2 380.1 231.1 380.3 215 380.3C198.8 380.3 196.8 380.1 188 377.5C176 374 156.8 366.6 151.3 363.4C149 362.1 146 360.6 144.7 360.1C142.2 359.1 142.2 359.2 143.1 362.3C143.6 364.1 143.9 368 143.8 371C143.6 376.5 145.2 389.6 147 397.8C148.3 403.5 148.3 414.7 147 415.5C146.4 415.9 143.8 416.7 141.2 417.3L136.5 418.5V428.3C136.5 437.9 136.4 438.2 133.7 440.6C129.9 443.9 127 443.6 123.3 439.8ZM229.9 338.5C231.5 337.7 233 336.4 233.4 335.5C233.8 334.3 234.6 334.1 236.2 334.5C238 335.1 239.8 333.7 247.4 325.8C254.4 318.6 257.5 314.4 260.8 307.9C264.8 299.9 265.8 296.1 264.3 294.7C264 294.3 262.4 295.9 260.8 298.2C257.5 303.3 257.3 302.9 260.1 296.5C262.9 290.2 262.3 283.5 258.5 278C253.4 270.6 238 261.9 220 256.2C172 240.9 171.4 240.6 169.5 237C168.7 235.4 168 233.3 168 232.3C168 231.3 167.3 229.4 166.4 228.2C165.1 226.3 164 226 157.6 226C148.9 226 145 223.8 145 219C145 213.3 154.2 206 161.3 206C164.3 206 169.9 203.3 167.5 202.9C167 202.8 165.2 202.6 163.6 202.4C155.8 201.5 160.9 199.7 199.9 189.5C207.9 187.4 215.6 186 219.1 186C224.7 186 225.7 185.6 235.7 179.3C241.6 175.5 248.6 170.4 251.2 167.9C255.8 163.6 256 163.1 256 157.9C256 145.8 250.6 135.1 240.8 127.7C235.7 123.9 235.2 126 240 131.5C245.5 137.8 245 138.4 239.3 132.4C233.5 126.4 229.6 124.4 219.2 122.5C208.7 120.5 204.5 121.5 194.4 128.2C190 131 182.7 135.1 178 137.2C173.3 139.3 166.8 142.4 163.5 144.1C140.4 156.1 132.8 160.4 132.3 161.8C131.9 162.6 132.2 170.1 132.8 178.4C134.2 195.5 135.6 225.6 137.1 266.5C137.6 281.9 138.2 296.3 138.3 298.5C138.5 302 138.8 302.5 141.6 303.1C143.4 303.4 146.7 305.2 149 307.1C160.3 316.3 168 322.8 172.5 327.1C178.1 332.5 181.9 334.4 193.5 337.6C203.5 340.3 225.3 340.9 229.9 338.5Z" fill="white"/>
<path d="M717 344.4C708.2 342 702.1 336.9 697.6 328.2C693.4 320 693.6 287.6 697.9 279.2C700.4 274.5 705.3 269.8 711 266.8C715 264.8 716.9 264.5 727.5 264.5C738.5 264.5 739.9 264.7 744.5 267.1C747.3 268.6 750.8 271 752.3 272.4C756.2 276 759.2 283.4 759.4 289.4L759.5 294.4L755.5 295.1C750.1 296 749.2 295.5 748 290.6C745.4 279.9 740.4 275.7 728.5 274.5C722.9 273.9 721.4 274.1 717.3 276.1C713.3 278.1 712 279.5 709.6 284.4C706.8 290 706.6 290.8 706.6 304.4C706.5 319.7 707.4 323.9 711.8 329.2C715.2 333.2 719.7 335 726.2 335C738.3 335 745.2 329.9 747.4 319.3C748.3 314.9 746.9 313.7 740.4 313.6C735.7 313.5 734.5 313.2 734.2 311.8C734 310.9 734.8 309.7 735.8 309.1C737.9 308 759.7 307.4 760.7 308.4C761.7 309.4 759 323.2 756.9 328C752.8 337.3 744.6 343.2 733.3 344.9C724.5 346.2 723.8 346.2 717 344.4Z" fill="white"/>
<path d="M1009.5 344.5C1000.9 342.2 999 341.1 993.5 335.6C986.8 328.6 986 325.5 986 304.6C986 283.3 986.8 280.2 994 272.9C1000.8 266.1 1005.6 264.5 1019 264.6C1027 264.6 1029.4 265 1034.1 267.2C1041.4 270.5 1046 275.3 1048.5 282C1050.2 286.7 1050.5 290 1050.5 304C1050.5 314.2 1050 322 1049.3 324.5C1047.7 329.6 1043.6 335.8 1039.9 338.8C1033.4 344.1 1018.6 346.8 1009.5 344.5ZM1025.6 333.5C1030.6 332 1034.6 328.7 1037.1 324C1038 322.2 1038.4 317.2 1038.3 306.3C1038.1 287.1 1037.6 284.1 1033.7 279.5C1030.8 276.2 1029.8 275.7 1023 274.8C1018.9 274.2 1013.9 274 1012 274.3C1007.2 275.2 1001.7 280 998.8 285.7C996.7 290 996.5 291.9 996.5 303.5C996.5 322.3 998.9 328.3 1008.3 332.9C1013.2 335.4 1018.7 335.6 1025.6 333.5Z" fill="white"/>
<path d="M638.7 343.3C631.4 340.8 625.7 335.2 622.4 327.3C619.6 320.5 619.6 320.5 619.2 292.8L618.8 265H623.3C631.5 265 631 263.2 631 291.4C631 305.8 631.5 318.1 632.1 320.3C632.6 322.4 634.5 325.6 636.2 327.6C641.6 333.7 647.8 335.7 656.3 333.9C663.6 332.3 666.2 330.8 669.6 325.9L672.5 321.7L673 293.6L673.5 265.5H679.5H685.5L685.8 288C686.1 311.2 685.1 324 682.6 328.8C680.2 333.4 673.1 340.1 668.2 342.3C661.8 345.2 645.6 345.7 638.7 343.3Z" fill="white"/>
<path d="M789.2 343C777.6 337.7 772 330.7 770.1 319C769.5 315.4 769 302.1 769 289.3V266.2L773 265.5C781.2 264.1 780.8 262.7 781.2 292.8C781.5 318.2 781.6 319.7 783.7 323.7C785 326 787.6 329.1 789.7 330.7C793.1 333.3 794 333.5 802.4 333.5C810.5 333.5 811.9 333.2 815.2 331C819.7 327.9 822.9 322.6 823.5 316.9C823.7 314.5 824.2 302.2 824.4 289.6C824.7 277 825.2 266.5 825.4 266.2C825.7 266 827.9 265.5 830.4 265.3L834.8 264.8L835.5 272.1C835.9 276.2 836 288.7 835.8 300C835.3 324.7 834.4 328.2 826.5 336.2C819.8 343.1 814.5 345 802.5 345C795.8 345 792.4 344.5 789.2 343Z" fill="white"/>
<path d="M863.3 342.9C856 340.5 850.7 335.8 847.4 328.6C843.7 320.7 844 319.8 850.2 320.2C854.9 320.5 855.6 320.8 857.7 324C861.8 330.6 864.4 333.3 867.6 334.6C871.9 336.4 883.8 336.4 888.1 334.6C894.9 331.7 899.7 324.3 898.5 318.4C897.4 312.3 894.4 311 874.6 307.9C860.6 305.8 856.5 304.4 851.7 300.4C847.8 297.2 844 290.5 844 287C844.2 279.9 850.6 270.3 857.5 267C866.4 262.7 886.5 262.7 894.8 266.9C901.9 270.5 910.5 281.6 909.8 286.3C909.6 288 908.6 288.6 905.5 289C899.2 289.9 898.1 289.2 896.8 284.3C894.8 276.3 884.2 271.1 872.6 272.6C862.9 273.9 857.9 277.8 856.6 285.1C855.7 289.9 857.3 293.8 860.7 295.1C864.4 296.6 874.7 298.8 883.5 300.1C899 302.2 907.5 306.9 910 314.6C913.4 324.9 906.4 337.5 894.3 342.7C888.2 345.3 871 345.4 863.3 342.9Z" fill="white"/>
<path d="M1410.4 343.6C1401.8 341.5 1396.5 337.3 1392.2 329C1390.3 325.4 1388.7 305.1 1389.4 294.1C1389.8 288.4 1390.8 283 1391.9 280.5C1394.2 275.3 1399.5 270.1 1405.7 267C1410 264.8 1411.8 264.5 1422.1 264.5C1433 264.5 1434 264.7 1439.5 267.5C1447 271.4 1452.6 279 1453.9 287C1455.1 294.3 1454.7 295 1449 295C1444.4 295 1444.2 294.9 1443.6 291.7C1442.9 287.9 1435.7 276.5 1433.4 275.6C1426.6 273 1412.3 274.4 1407.5 278.1C1402.3 282.3 1401.7 285 1401.6 304C1401.6 320.8 1401.7 321.8 1404.1 326C1407.6 332.2 1412.4 334.5 1422.1 334.3C1433.7 334.2 1436.4 332.3 1442.4 320.3C1446 313.1 1446.1 313 1449.9 313C1453.5 313 1453.8 313.2 1454.4 316.5C1456.3 326.3 1446.8 339.3 1434.7 343.4C1429.1 345.3 1417.8 345.4 1410.4 343.6Z" fill="white"/>
<path d="M1483.7 343.2C1477.7 341.1 1469.7 334.1 1466.7 328.7C1464.6 324.7 1464.5 323.5 1464.7 304.8C1465 282.4 1465.8 279.1 1473.1 272.6C1479.5 266.8 1484.5 264.7 1493.5 264.2C1508.5 263.4 1517.6 267 1524.3 276.6C1531.3 286.6 1532 319.8 1525.5 329.9C1521.8 335.7 1514.8 341.8 1510.1 343.5C1504.1 345.6 1489.9 345.4 1483.7 343.2ZM1507.4 332.6C1511 330.2 1513.9 327.1 1515.7 323.7C1517.2 321 1517.5 317.9 1517.5 304C1517.4 285.3 1516.5 281.7 1510.4 277.9C1505.2 274.8 1494.7 273.4 1488.6 275.1C1481.1 277.3 1478.4 281.3 1477.1 292.5C1474.2 316.7 1476.8 327.7 1486.9 333C1489.8 334.5 1491.9 334.8 1497.9 334.5C1501.9 334.2 1506.2 333.4 1507.4 332.6Z" fill="white"/>
<path d="M352.8 342.9C351.1 342 351 339 351 303.3V264.7L370.7 265.3C381.5 265.7 394.3 266 399.1 266C408.6 266 409.8 266.7 408 271.5L407 274H390.3C381 274 371.1 274.3 368.2 274.7L362.9 275.3L363.2 287.4L363.5 299.5L384.5 300L405.5 300.5L405.8 303.3C406.5 308.8 405.6 309 383.4 309H363V321.4C363 335.8 362.6 335.3 373.3 335C376.7 334.9 386.1 334.8 394.3 334.9L409 335V338.5C409 340.5 408.4 342.2 407.8 342.4C404.7 343.4 354.4 343.8 352.8 342.9Z" fill="white"/>
<path d="M424.2 342.8C422.6 341.2 422.5 265.5 424 264.5C425.6 263.5 432.9 265 434.3 266.5C434.9 267.3 437.8 270.9 440.5 274.6C449.3 286.4 455.6 293.5 457.2 293.5C458 293.5 462.6 288.6 467.3 282.5C482.3 263.2 484.9 261 489.4 264.3C491 265.5 491.1 268.1 490.4 304.3C489.7 340.3 489.6 343 487.9 343.5C486.9 343.9 485.2 343.7 484.2 343.1C481.9 341.9 481 331.5 481 304.8C481 289.8 480.8 287 479.5 287C478.7 287 474.7 290.9 470.5 295.8C461.5 306.1 458.7 308.4 456.1 307.5C455.1 307.2 451.6 304.1 448.3 300.8C433.8 285.4 435 286.3 433.4 288.5C432.3 290 432 295.5 432 315.3C432 330.5 431.6 340.9 431 342.1C429.8 344.2 426 344.6 424.2 342.8Z" fill="white"/>
<path d="M547.3 342.5L544 341.1V323.4C544 299.1 545.6 283.6 548.5 279C551.9 273.6 560.2 266.5 564.8 265.2C569.8 263.7 582.4 263.7 588.7 265.1C594.8 266.5 600.5 270.3 604.6 275.7C609.2 281.8 610.1 288.9 609.8 318L609.5 342.4L605.7 343.2C603.3 343.7 601.1 343.6 599.8 342.9C598 341.9 597.8 341 598.1 333.2C598.3 328.4 598.1 323.9 597.6 323.2C596.6 321.5 558.4 321.7 557.1 323.4C556.6 324 556 328.3 555.8 332.9C555.4 339.6 554.9 341.6 553.5 342.6C551.2 344.3 551.3 344.3 547.3 342.5ZM597.8 299.8C597.3 285 596.3 281.8 590.8 277.8C587.8 275.7 586.4 275.5 576.8 275.5C566.8 275.5 566 275.7 563.4 278C558.3 282.7 557 287.3 557 300.8V313H577.6H598.2L597.8 299.8Z" fill="white"/>
<path d="M945.5 343.3C944.4 343 943.2 342.5 942.8 342.1C942.4 341.8 942 328 941.9 311.5C941.8 295 941.6 280.1 941.3 278.4L940.8 275.2L928.2 274.4L915.5 273.5L915.2 269.3L914.9 265H941.2C955.7 265 970.5 265.3 974.3 265.7C980.7 266.3 981 266.4 981 269C981 274.3 979.6 274.9 966.5 275.2L954.5 275.5L954 308.3C953.5 339.4 953.4 341.2 951.6 342.6C949.6 344 948.9 344.1 945.5 343.3Z" fill="white"/>
<path d="M1168 343.1L1165.5 342.4L1165.2 303.7L1165 265L1185.7 265.1C1213.1 265.2 1216 265.6 1221 270.5C1227.2 276.6 1229.5 282.8 1229.4 293.5C1229.3 304.5 1227.7 308.2 1219.6 315.7C1216.5 318.6 1214 321.4 1214 321.9C1214 322.4 1215 324.1 1216.3 325.7C1217.6 327.2 1220.8 331.6 1223.4 335.4C1229.4 343.9 1228.3 345.3 1217.8 342.4C1216.9 342.1 1213.4 338.2 1210.1 333.7C1201 321.4 1201.9 322 1194.3 322C1190.5 321.9 1185.5 321.5 1183 321C1180.5 320.6 1178.3 320.4 1178 320.7C1177.7 320.9 1177.3 326.2 1177 332.3L1176.5 343.5L1173.5 343.7C1171.9 343.8 1169.4 343.5 1168 343.1ZM1210.8 309.7C1215.4 305.5 1217.3 300.1 1217.3 292C1217.3 285.7 1216.8 283.7 1214.6 279.9L1211.9 275.2L1195.2 274.8C1186 274.6 1178.2 274.5 1177.8 274.7C1176.9 275.2 1176.7 309 1177.5 311.2C1177.9 312.2 1181.3 312.4 1193.3 312.2C1207.3 311.9 1208.7 311.7 1210.8 309.7Z" fill="white"/>
<path d="M1240.2 342.8C1239.3 341.9 1239 333.9 1239 313V284.3L1242.8 278.4C1249.1 268.7 1257.6 264 1268.9 264C1281.2 264 1292.5 267.6 1297.7 273.2C1303.1 279 1303.5 281.2 1303.8 313.8L1304.1 344L1301.3 343.9C1293.7 343.6 1293.5 343.4 1293 332.5L1292.5 322.5L1271.9 322.2L1251.2 322L1250.6 324.2C1250.3 325.5 1250 329.7 1250 333.7C1250 337.6 1249.7 341.5 1249.4 342.4C1248.7 344.3 1242 344.6 1240.2 342.8ZM1292.4 301C1292.4 287.7 1290.5 281.9 1284.8 277.9C1281.9 275.8 1280.4 275.5 1272 275.5C1258.1 275.6 1255.3 277.4 1252.4 288.5C1251 293.7 1250.5 311.1 1251.7 312.4C1252.1 312.7 1261.4 312.9 1272.4 312.8L1292.5 312.5L1292.4 301Z" fill="white"/>
<path d="M1315 343C1313.7 342.2 1313.5 338.1 1313.6 315.8C1313.6 286.8 1314.4 281.9 1319.8 274.4C1328.1 263 1352 259.8 1366.7 268.1C1372.8 271.6 1375.4 274.9 1378.1 282.5C1379.8 287.4 1380 290.9 1380 314.9C1380 329.7 1379.7 342.1 1379.3 342.3C1377.4 343.4 1371.4 343.9 1370.1 343.1C1369 342.4 1368.6 336.5 1368.1 314.4C1367.7 296.8 1367 285.8 1366.3 284.5C1361.3 275.6 1347.6 272.1 1335.9 276.8C1332.9 278 1328.3 283.2 1326.8 286.9C1326.3 288.3 1325.6 301.4 1325.3 316C1324.9 333.9 1324.4 342.7 1323.6 343.2C1322 344.3 1316.8 344.1 1315 343Z" fill="white"/>
<path d="M1100 304V265H1128.6H1157.1L1156.8 269.3L1156.5 273.5L1150.5 274.1C1147.2 274.5 1136.9 274.8 1127.7 274.9L1110.9 275L1111.2 287.3L1111.5 299.5L1132 299.8C1143.2 299.9 1152.8 300.4 1153.3 300.9C1153.8 301.4 1153.8 303.4 1153.4 305.4L1152.8 309.1L1132.3 308.9C1121.1 308.8 1111.7 308.9 1111.6 309.1C1111.2 309.6 1110.1 329.5 1110 337.3V343H1105H1100V304Z" fill="white"/>
<path d="M534.1 233.4C525 231 519.5 226.8 514.5 218.5C509.8 210.6 508.6 202.5 509.2 181.5C509.9 160.7 511.4 155.4 519.4 147.4C524.7 142.2 531.9 138.9 541.5 137.4C546.2 136.7 559.6 138.4 566.2 140.6C576.4 143.9 585.3 156.1 586.6 168.8L587.3 175H580.1H573V171C573 166.1 571.2 161.6 567.5 157.2C563.4 152.3 557.6 149.8 549.3 149.2C542.9 148.8 541.5 149.1 535.6 151.8C524 157.2 521.4 165 522.2 191.6C522.6 202.6 523 205.4 524.9 209.3C532.2 224.4 554.5 227.9 565.7 215.7C569.7 211.4 573.7 201.3 572.6 198.5C572.1 197 568.6 196.5 562.3 196.9C557.9 197.2 554.8 195.4 555.2 192.7C555.5 190.6 555.9 190.5 571.4 190.2L587.3 189.9L586.6 197.7C585 216.5 575.4 229.7 560.7 233.6C554 235.4 541 235.3 534.1 233.4Z" fill="white"/>
<path d="M786.7 233.1C780.9 231.2 775 227.4 771.7 223.6C766.9 217.9 763.2 207.9 762.8 199.4L762.5 193.5H769H775.5L776.1 199C777.2 208.9 783.9 218.8 790.8 220.8C792.3 221.2 797.3 221.5 802 221.5C812.2 221.5 817.4 219.2 822 212.9C826.5 206.7 827.2 201.3 826.8 174L826.5 149.5L803.8 149.2L781 149V144V139H811H841V171.3C841 205.1 840.7 207.8 836.2 216.7C833.2 222.6 827.7 227.5 820.2 231.2C814.2 234.2 812.6 234.5 803 234.7C794.9 234.9 791.2 234.6 786.7 233.1Z" fill="white"/>
<path d="M1299.5 233.1C1291.9 230.4 1288.9 228.5 1284.9 224.3C1278.9 218.1 1275.2 209.3 1277.1 205.9C1279 202.3 1291 204.3 1291 208.2C1291 208.9 1291.9 211.3 1293.1 213.7C1294.7 216.9 1296.6 218.9 1300.4 221C1304.9 223.7 1306.4 224 1314 224C1325.2 224 1329.4 222.7 1334.7 217.6C1339.7 212.9 1341.5 207.3 1339.8 201.4C1338.2 195.3 1333 193.4 1306.5 189C1298 187.6 1287.6 184.5 1284.3 182.3C1283 181.4 1280.7 178.6 1279.2 176.1C1274.7 168.4 1276.1 155.8 1282.4 147.5C1289.7 138 1313.6 134.1 1330.8 139.5C1341.2 142.8 1346.7 147.5 1350.5 156.4C1354.3 165.4 1353.9 166.4 1346.4 166.8L1340.4 167.1L1338 161.9C1335.1 155.9 1328.3 149.4 1323.1 148C1318.2 146.7 1307.6 146.7 1302.9 148.2C1297.9 149.6 1291.7 154.9 1289.6 159.5C1287.6 163.6 1288.3 166.8 1292.1 172.2C1295.1 176.3 1299.6 178 1312 179.6C1317.8 180.4 1325.6 181.4 1329.3 181.9C1343.3 183.8 1352.3 190.8 1353.6 200.8C1355.5 215.8 1346.8 228.2 1330.8 233.2C1322.7 235.7 1306.5 235.6 1299.5 233.1Z" fill="white"/>
<path d="M353.2 232.2C352.5 232 352 229.9 352 227.4V223H368.5H385V184.5V146.1L374.3 145.8C363.9 145.5 363.5 145.4 363.2 143.2C362.8 140.2 364.6 138 367.6 138C368.8 138 373.9 136.7 378.8 135C388.2 131.9 397 131 397 133.3C396.8 157.6 397.8 221.1 398.4 221.7C398.8 222.1 402.2 222.5 405.8 222.5C409.5 222.5 416.9 222.6 422.3 222.8L432 223V228.1V233.2L393.2 232.9C371.8 232.7 353.8 232.4 353.2 232.2Z" fill="white"/>
<path d="M483.5 231.8C483.2 231.1 483.1 210 483.2 185L483.5 139.5H490H496.5V186V232.5L490.2 232.8C485.8 233 483.8 232.7 483.5 231.8Z" fill="white"/>
<path d="M599 231.8C598.9 228.7 598.8 146.1 598.9 142.8L599 139H623.3C649.5 139 657.4 139.9 662.9 143.6C669.8 148.3 674 159 674 172.6C674 186.8 669 197.3 660.5 201.1C653.4 204.2 653.3 204 666.4 221.8C670 226.7 673 231.2 673 231.7C673 232.3 670 232.6 666.4 232.6L659.8 232.5L650.6 219.5L641.4 206.5H626.4H611.5L611.4 218.5C611.3 225.1 611.2 231.1 611.1 231.8C611 232.6 609.1 233 605 233C600.9 233 599 232.6 599 231.8ZM640.7 195.4C650.8 194.7 654.1 192.8 658.1 185.1C663.8 174.4 661 158.7 652.2 152.5L647.8 149.5H629.7H611.5V171.6C611.5 189 611.8 194.1 612.9 195.4C614.4 197.1 614.8 197.1 640.7 195.4Z" fill="white"/>
<path d="M687.7 232.3C687.3 232 687 210.8 687 185.3V139L720.8 139.2L754.5 139.5L754.8 142.9C755 144.7 754.7 146.7 754.1 147.3C752.8 148.6 753.5 148.6 723.8 148.8L700 149V164.4C700 177.5 700.2 179.9 701.6 180.4C702.5 180.7 713.7 181 726.6 181H750V186V191H725H700V206.5C700 218.1 700.3 222.1 701.3 222.2C701.9 222.4 714.2 222.5 728.5 222.5H754.5V227.5V232.5L721.4 232.8C703.2 232.9 688.1 232.7 687.7 232.3Z" fill="white"/>
<path d="M853.2 198.8C853.5 166.4 853.7 164.2 855.7 159.2C858.3 152.9 863.7 146 868.4 143.1C870.3 141.9 875.6 140 880.1 138.8C887.7 136.9 889.3 136.8 897.8 137.9C912.8 139.7 921.6 145.2 926.3 155.7C930.4 165 931.1 171.9 930.8 203.5L930.5 232.5H924H917.5L917.2 220.3L916.9 208H891.5H866V220.5V233H859.4H852.9L853.2 198.8ZM916.8 183.5C917.3 164 914.6 157.3 904.4 152.5C890.7 146 874.5 151 868.5 163.5C866.2 168.4 866 170 866 182.3C866 189.6 866.3 196 866.7 196.4C867.1 196.7 878.4 196.9 891.9 196.8L916.5 196.5L916.8 183.5Z" fill="white"/>
<path d="M989.5 231.9C989.2 231.1 989.1 210 989.2 185L989.5 139.5L1014 139.2C1043 138.8 1050.1 139.7 1056.3 144.4C1068.1 153.2 1068.3 171.2 1056.8 182C1053.3 185.3 1052.8 186.2 1054 186.9C1061.9 191.6 1063 192.6 1064.9 197.1C1067.7 203.4 1067.7 213.6 1065.1 218.8C1062.5 223.8 1058.5 227.5 1052.5 230.1C1047.8 232.3 1045.9 232.4 1018.8 232.8C995.1 233.2 989.9 233 989.5 231.9ZM1046.8 220.8C1054.3 218.5 1058.4 206.6 1054.2 199C1050.4 192.1 1048.1 191.5 1024.5 191.5H1003.5L1003.2 206C1003.1 213.9 1003.2 221 1003.4 221.7C1003.8 222.7 1008.2 222.8 1023.7 222.4C1034.6 222.1 1045 221.4 1046.8 220.8ZM1045.5 179C1049 177.2 1052.6 172.1 1054.1 166.8C1055.6 161 1052.2 154.3 1046 151.3C1041.9 149.1 1040.3 149 1022.3 149H1003V164.3C1003 172.8 1003.3 180 1003.8 180.4C1005.1 181.9 1042.2 180.5 1045.5 179Z" fill="white"/>
<path d="M1076 201.1C1076 170.2 1076.1 168.9 1078.3 162.8C1084.8 145.2 1096.1 137.6 1116 137.6C1130.9 137.6 1142 142.6 1147.8 151.7C1153.5 160.6 1153.9 163.9 1154 198.3C1154.1 215.4 1154.1 230.3 1154.1 231.3C1154 232.7 1153 233 1147.5 233H1141V220.5V208H1115H1089.1L1089.3 220.3L1089.5 232.5L1082.8 232.8L1076 233.1V201.1ZM1141 182.8C1141 167.2 1140.1 163.8 1134.5 157.1C1124.2 145 1099.1 148.6 1092.2 163.2C1089.7 168.5 1088 191.4 1089.9 194.9C1091 197 1091.5 197 1116 197H1141V182.8Z" fill="white"/>
<path d="M1194.7 232.3C1194.3 232 1194 213.3 1194 190.8C1194 158.9 1193.7 150 1192.8 149.8C1192.1 149.8 1191.1 149.6 1190.5 149.5C1190 149.3 1183.1 149.2 1175.2 149.1L1160.9 149L1161.2 144.3L1161.5 139.5L1200.3 139.2L1239 139V144V149L1222.8 149.2L1206.5 149.5L1206.2 191.3L1206 233H1200.7C1197.7 233 1195 232.7 1194.7 232.3Z" fill="white"/>
<path d="M1251 186V139H1257.5H1264V186V233H1257.5H1251V186Z" fill="white"/>
<path d="M1392.8 191.3L1392.5 149.5L1376.8 149.2L1361 148.9V144V139H1399.6H1438.1L1437.8 143.8L1437.5 148.5L1422 149L1406.5 149.5L1406 191L1405.5 232.5L1399.3 232.8L1393 233.1L1392.8 191.3Z" fill="white"/>
<path d="M1445 200.7C1445 171.1 1445.2 167.6 1447 161.8C1448.1 158.2 1450.3 153.5 1451.9 151.3C1465.6 132.4 1504.5 133 1516.6 152.2C1522 160.7 1522.5 164.6 1522.5 200V232.5H1516H1509.5L1509.2 220.3L1508.9 208H1483.5H1458.1L1457.8 220.3L1457.5 232.5L1451.3 232.8L1445 233.1V200.7ZM1508.5 181.9C1508.5 167.7 1508.4 167.2 1505.5 161.5C1502.9 156.4 1501.7 155.2 1497 152.8C1486.8 147.7 1470.6 149.9 1464.4 157.3C1459.1 163.6 1458 167.9 1458 182.4C1458 189.7 1458.3 196 1458.7 196.4C1459.1 196.7 1470.4 196.9 1483.9 196.8L1508.5 196.5V181.9Z" fill="white"/>
<path d="M419 166.3C413.2 164.2 410.7 157.4 413.6 151.5C415.7 146.9 418.1 146 428.1 146C435.9 146 436 146 436 143.4C436 141.9 434.8 139.6 433 137.8C430.4 135.2 429.4 134.9 426.5 135.4C415.3 137.3 416 137.4 416 135.2C416 132.8 417.6 132.1 424.9 131.4C432.3 130.7 436 131.9 438.8 136C440.8 139 441 140.4 441 153V166.6L430.8 166.7C425.1 166.8 419.8 166.6 419 166.3ZM430 162C434.1 162 436.2 159.5 435.8 155.1L435.5 151.5L428.8 151.2C420.7 150.8 418 152 418 155.9C418 159.7 422.5 163.5 425.8 162.4C426.6 162.2 428.4 162 430 162Z" fill="white"/>
</svg>
