<svg id="visual" viewBox="0 0 2560 740.281" width="2560" height="740.281" xmlns="http://www.w3.org/2000/svg" xmlns:xlink="http://www.w3.org/1999/xlink" version="1.1"><rect x="0" y="0" width="2560" height="740.281" fill="#002233"></rect><path d="M0 476L38.8 455.8C77.7 435.7 155.3 395.3 232.8 374.8C310.3 354.3 387.7 353.7 465.2 374.2C542.7 394.7 620.3 436.3 698 442C775.7 447.7 853.3 417.3 931 413C1008.7 408.7 1086.3 430.3 1163.8 429.2C1241.3 428 1318.7 404 1396.2 387.2C1473.7 370.3 1551.3 360.7 1629 377.8C1706.7 395 1784.3 439 1862 459.3C1939.7 479.7 2017.3 476.3 2094.8 491.2C2172.3 506 2249.7 539 2327.2 541.3C2404.7 543.7 2482.3 515.3 2521.2 501.2L2560 487" fill="none" stroke-linecap="round" stroke-linejoin="miter" stroke="#064459" stroke-width="40"></path></svg>